<svg width="481" height="480" xmlns="http://www.w3.org/2000/svg" xmlns:xlink="http://www.w3.org/1999/xlink" xml:space="preserve" overflow="hidden"><defs><clipPath id="clip0"><rect x="2075" y="873" width="481" height="480"/></clipPath><linearGradient x1="2075.48" y1="1353.48" x2="2555.48" y2="872.521" gradientUnits="userSpaceOnUse" spreadMethod="reflect" id="fill1"><stop offset="0" stop-color="#C66B6B"/><stop offset="0.2" stop-color="#C66B6B"/><stop offset="0.45" stop-color="#913985"/><stop offset="1" stop-color="#4361C2"/></linearGradient><linearGradient x1="2075.48" y1="1353.48" x2="2555.48" y2="872.521" gradientUnits="userSpaceOnUse" spreadMethod="reflect" id="fill2"><stop offset="0" stop-color="#C66B6B"/><stop offset="0.2" stop-color="#C66B6B"/><stop offset="0.45" stop-color="#913985"/><stop offset="1" stop-color="#4361C2"/></linearGradient><linearGradient x1="2075.48" y1="1353.48" x2="2555.48" y2="872.521" gradientUnits="userSpaceOnUse" spreadMethod="reflect" id="fill3"><stop offset="0" stop-color="#C66B6B"/><stop offset="0.2" stop-color="#C66B6B"/><stop offset="0.45" stop-color="#913985"/><stop offset="1" stop-color="#4361C2"/></linearGradient><linearGradient x1="2075.48" y1="1353.48" x2="2555.48" y2="872.521" gradientUnits="userSpaceOnUse" spreadMethod="reflect" id="fill4"><stop offset="0" stop-color="#C66B6B"/><stop offset="0.2" stop-color="#C66B6B"/><stop offset="0.45" stop-color="#913985"/><stop offset="1" stop-color="#4361C2"/></linearGradient></defs><g clip-path="url(#clip0)" transform="translate(-2075 -873)"><path d="M2230.24 1072.49C2237.88 1072.49 2244.22 1078.86 2244.22 1086.48L2244.22 1142.38C2244.22 1150.01 2237.88 1156.38 2230.24 1156.38L2174.27 1156.38C2166.64 1156.38 2160.26 1150.01 2160.26 1142.38L2160.26 1086.48C2160.26 1078.86 2166.64 1072.49 2174.27 1072.49ZM2342.2 1016.58C2351.12 1016.58 2357.46 1022.96 2357.46 1030.58L2357.46 1142.38C2357.46 1150.01 2351.12 1156.38 2342.2 1156.38L2287.51 1156.38C2278.59 1156.38 2272.25 1150.01 2272.25 1142.38L2272.25 1030.58C2272.25 1022.96 2278.59 1016.58 2287.51 1016.58ZM2454.19 960.683C2461.82 960.683 2468.16 967.016 2468.16 974.639L2468.16 1142.38C2468.16 1150.01 2461.82 1156.38 2454.19 1156.38L2398.21 1156.38C2390.54 1156.38 2384.2 1150.01 2384.2 1142.38L2384.2 974.639C2384.2 967.016 2390.54 960.683 2398.21 960.683ZM2300.23 1212.28 2300.23 1240.23 2283.68 1240.23 2295.15 1212.28ZM2333.31 1212.28 2344.74 1240.23 2328.22 1240.23 2328.22 1212.28ZM2315.5 873C2307.87 873 2301.49 879.373 2301.49 888.246L2301.49 902.241 2089.01 902.241C2081.38 902.241 2075 908.574 2075 916.196 2075 923.819 2081.38 930.192 2089.01 930.192L2104.28 930.192 2104.28 1184.33 2090.27 1184.33C2081.38 1184.33 2075 1190.66 2075 1199.57 2075 1207.2 2081.38 1213.53 2090.27 1213.53L2265.87 1213.53 2218.77 1334.25C2214.98 1341.87 2218.77 1349.49 2226.41 1352.03 2227.98 1352.68 2229.72 1353 2231.54 1353 2237.19 1353 2243.29 1349.89 2244.22 1343.16L2274.79 1269.47 2301.49 1269.47 2301.49 1310.13C2301.49 1317.75 2307.87 1324.08 2315.5 1324.08 2323.13 1324.08 2329.47 1317.75 2329.47 1310.13L2329.47 1269.47 2357.46 1269.47 2386.74 1343.16C2389.65 1349.89 2394.7 1353 2399.79 1353 2401.4 1353 2403.02 1352.68 2404.55 1352.03 2412.18 1348.24 2416.02 1340.62 2412.18 1334.25L2365.09 1213.53 2540.69 1213.53C2549.62 1213.53 2555.96 1207.2 2555.96 1199.57 2555.96 1190.66 2549.62 1184.33 2540.69 1184.33L2526.72 1184.33 2526.72 930.192 2540.69 930.192C2549.62 930.192 2555.96 923.819 2555.96 916.196 2555.96 908.574 2549.62 902.241 2540.69 902.241L2329.47 902.241 2329.47 888.246C2329.47 879.373 2323.13 873 2315.5 873Z" fill="url(#fill1)" fill-rule="evenodd"/><path d="M2300.04 1044 2300.04 1128 2328 1128 2328 1044Z" fill="url(#fill2)" fill-rule="evenodd"/><path d="M2188 1100 2188 1128 2215.96 1128 2215.96 1100Z" fill="url(#fill3)" fill-rule="evenodd"/><path d="M2412 988 2412 1128 2441 1128 2441 988Z" fill="url(#fill4)" fill-rule="evenodd"/></g></svg>