<svg width="631" height="480" xmlns="http://www.w3.org/2000/svg" xmlns:xlink="http://www.w3.org/1999/xlink" xml:space="preserve" overflow="hidden"><defs><clipPath id="clip0"><rect x="320" y="996" width="631" height="480"/></clipPath><linearGradient x1="404.238" y1="1540.02" x2="866.762" y2="931.927" gradientUnits="userSpaceOnUse" spreadMethod="reflect" id="fill1"><stop offset="0" stop-color="#C66B6B"/><stop offset="0.17" stop-color="#913985"/><stop offset="1" stop-color="#4361C2"/></linearGradient><linearGradient x1="404.238" y1="1540.02" x2="866.762" y2="931.927" gradientUnits="userSpaceOnUse" spreadMethod="reflect" id="fill2"><stop offset="0" stop-color="#C66B6B"/><stop offset="0.17" stop-color="#913985"/><stop offset="1" stop-color="#4361C2"/></linearGradient><linearGradient x1="404.238" y1="1540.02" x2="866.762" y2="931.927" gradientUnits="userSpaceOnUse" spreadMethod="reflect" id="fill3"><stop offset="0" stop-color="#C66B6B"/><stop offset="0.17" stop-color="#913985"/><stop offset="1" stop-color="#4361C2"/></linearGradient><linearGradient x1="404.238" y1="1540.02" x2="866.762" y2="931.927" gradientUnits="userSpaceOnUse" spreadMethod="reflect" id="fill4"><stop offset="0" stop-color="#C66B6B"/><stop offset="0.17" stop-color="#913985"/><stop offset="1" stop-color="#4361C2"/></linearGradient><linearGradient x1="404.238" y1="1540.02" x2="866.762" y2="931.927" gradientUnits="userSpaceOnUse" spreadMethod="reflect" id="fill5"><stop offset="0" stop-color="#C66B6B"/><stop offset="0.17" stop-color="#913985"/><stop offset="1" stop-color="#4361C2"/></linearGradient></defs><g clip-path="url(#clip0)" transform="translate(-320 -996)"><path d="M544 1180 544 1212.95C558.853 1208.03 570.358 1196.47 576.948 1180Z" fill="url(#fill1)" fill-rule="evenodd"/><path d="M613.267 1180C608.274 1216.44 578.475 1246.25 542.053 1252.88L542.053 1291 653 1291 653 1180Z" fill="url(#fill2)" fill-rule="evenodd"/><path d="M523.479 1107.05C491.944 1107.05 467 1131.7 467 1162.98 467 1187.68 481.977 1205.75 503.545 1214L503.545 1162.98C503.545 1153.11 511.877 1144.86 523.479 1144.86L575 1144.86C568.356 1121.83 546.734 1107.05 523.479 1107.05Z" fill="url(#fill3)" fill-rule="evenodd"/><path d="M820.824 1070.6C832.398 1070.6 840.711 1078.86 840.711 1088.8 840.711 1098.75 832.398 1107.06 820.824 1107.06L746.221 1107.06C736.277 1107.06 727.964 1098.75 727.964 1088.8 727.964 1078.86 736.277 1070.6 746.221 1070.6ZM820.824 1141.83C832.398 1141.83 840.711 1150.14 840.711 1161.77 840.711 1171.71 832.398 1179.97 820.824 1179.97L746.221 1179.97C736.277 1179.97 727.964 1171.71 727.964 1161.77 727.964 1150.14 736.277 1141.83 746.221 1141.83ZM820.824 1216.43C832.398 1216.43 840.711 1224.74 840.711 1236.32 840.711 1246.26 832.398 1254.57 820.824 1254.57L746.221 1254.57C736.277 1254.57 727.964 1246.26 727.964 1236.32 727.964 1224.74 736.277 1216.43 746.221 1216.43ZM525.778 1067.29C570.498 1067.29 608.641 1098.75 616.954 1141.83L674.932 1141.83C684.875 1141.83 693.188 1150.14 693.188 1161.77L693.188 1310.92 691.504 1310.92C691.504 1320.86 683.244 1329.17 671.617 1329.17L525.778 1329.17C514.15 1329.17 505.89 1320.86 505.89 1310.92L505.89 1252.89C464.432 1244.63 431.287 1206.49 431.287 1161.77 431.287 1108.69 472.745 1067.29 525.778 1067.29ZM820.824 1291.03C832.398 1291.03 840.711 1299.29 840.711 1310.92 840.711 1320.86 832.398 1329.17 820.824 1329.17L746.221 1329.17C736.277 1329.17 727.964 1320.86 727.964 1310.92 727.964 1299.29 736.277 1291.03 746.221 1291.03ZM373.256 996C363.313 996 355.053 1004.31 355.053 1014.26L355.053 1363.95 911.947 1363.95 911.947 1014.26C911.947 1004.31 903.687 996 893.744 996Z" fill="url(#fill4)" fill-rule="evenodd"/><path d="M320 1402.05 320 1456.24C320 1467.76 328.305 1475.95 338.24 1475.95L932.76 1475.95C942.695 1475.95 951 1467.76 951 1456.24L951 1402.05Z" fill="url(#fill5)" fill-rule="evenodd"/></g></svg>