<svg width="852" height="854" xmlns="http://www.w3.org/2000/svg" xmlns:xlink="http://www.w3.org/1999/xlink" xml:space="preserve" overflow="hidden"><defs><linearGradient x1="1292.88" y1="1262.25" x2="2146.8" y2="411.823" gradientUnits="userSpaceOnUse" spreadMethod="reflect" id="fill0"><stop offset="0" stop-color="#C66B6B"/><stop offset="0.17" stop-color="#913985"/><stop offset="1" stop-color="#4361C2"/></linearGradient><linearGradient x1="1292.88" y1="1262.25" x2="2146.8" y2="411.823" gradientUnits="userSpaceOnUse" spreadMethod="reflect" id="fill1"><stop offset="0" stop-color="#C66B6B"/><stop offset="0.17" stop-color="#913985"/><stop offset="1" stop-color="#4361C2"/></linearGradient><linearGradient x1="1292.88" y1="1262.25" x2="2146.8" y2="411.823" gradientUnits="userSpaceOnUse" spreadMethod="reflect" id="fill2"><stop offset="0" stop-color="#C66B6B"/><stop offset="0.17" stop-color="#913985"/><stop offset="1" stop-color="#4361C2"/></linearGradient><linearGradient x1="1292.88" y1="1262.25" x2="2146.8" y2="411.823" gradientUnits="userSpaceOnUse" spreadMethod="reflect" id="fill3"><stop offset="0" stop-color="#C66B6B"/><stop offset="0.17" stop-color="#913985"/><stop offset="1" stop-color="#4361C2"/></linearGradient><linearGradient x1="1292.88" y1="1262.25" x2="2146.8" y2="411.823" gradientUnits="userSpaceOnUse" spreadMethod="reflect" id="fill4"><stop offset="0" stop-color="#C66B6B"/><stop offset="0.17" stop-color="#913985"/><stop offset="1" stop-color="#4361C2"/></linearGradient></defs><g transform="translate(-1294 -410)"><path d="M1445.19 536C1404.16 536 1370.07 569.951 1370.07 610.648 1370.07 651.346 1404.16 683 1445.19 683 1486.15 683 1518 651.346 1518 610.648 1518 569.951 1486.15 536 1445.19 536Z" fill="url(#fill0)" fill-rule="evenodd"/><path d="M1616.69 410.072C1573.67 410.072 1542 443.956 1542 486.956L1542 539.002C1542 579.706 1575.97 611.364 1616.69 611.364L1707.19 611.364 1799.98 704.113C1805.73 708.349 1812.33 709.928 1818.73 709.928 1822.46 709.928 1826.05 709.426 1829.36 708.636 1838.41 704.113 1842.93 692.771 1842.93 685.951L1842.93 606.841C1872.38 595.499 1895 568.363 1895 534.479L1895 486.956C1895 443.956 1858.8 410.072 1820.31 410.072Z" fill="url(#fill1)" fill-rule="evenodd"/><path d="M1528.67 1031.83 1555.79 1108.79 1377.19 1108.79 1393.05 1038.58 1393.05 1031.83ZM1393.05 708.072C1370.44 708.072 1352.36 723.882 1345.54 744.292L1295.82 968.441C1289.07 1002.36 1311.68 1031.83 1343.32 1031.83L1295.82 1228.81C1291.3 1242.39 1300.34 1253.68 1311.68 1258.2 1314.11 1259.07 1316.48 1259.42 1318.78 1259.42 1329.11 1259.42 1337.72 1251.66 1343.32 1242.39L1363.63 1160.83 1571.65 1160.83 1594.25 1221.98C1601.71 1246.42 1621.73 1259.93 1641.18 1259.93 1645.2 1259.93 1649.14 1259.35 1653.02 1258.2 1680.14 1253.68 1696 1224.28 1691.48 1199.35L1616.85 972.969C1612.33 950.331 1591.95 936.748 1569.35 936.748L1517.4 936.748C1503.84 936.748 1492.5 925.394 1492.5 911.811 1492.5 895.929 1503.84 884.646 1517.4 884.646L1591.95 884.646C1619.08 884.646 1641.68 862.008 1641.68 834.843 1641.68 805.378 1619.08 782.74 1591.95 782.74L1456.34 782.74 1438.25 735.237C1431.44 719.355 1413.35 708.072 1393.05 708.072Z" fill="url(#fill2)" fill-rule="evenodd"/><path d="M1992.39 536C1951.71 536 1920.07 569.951 1920.07 610.648 1920.07 651.346 1951.71 683 1992.39 683 2033.07 683 2066.93 651.346 2066.93 610.648 2066.93 569.951 2033.07 536 1992.39 536Z" fill="url(#fill3)" fill-rule="evenodd"/><path d="M2044.95 1032.15 2044.95 1038.9 2060.81 1109.03 1884.44 1109.03 1909.34 1032.15ZM2044.95 711C2024.65 711 2008.79 722.341 1999.75 738.133L1981.67 787.877 1846.05 787.877C1818.92 787.877 1796.32 810.488 1796.32 837.621 1796.32 867.052 1818.92 889.663 1846.05 889.663L1920.67 889.663C1934.23 889.663 1945.5 900.932 1945.5 914.499 1945.5 928.065 1934.23 939.407 1920.67 939.407L1868.65 939.407C1846.05 939.407 1827.96 952.973 1821.15 975.584L1748.82 1201.77C1742.07 1228.9 1755.63 1256.03 1784.98 1262.78 1788.14 1263.43 1791.51 1263.78 1794.96 1263.78 1815.91 1263.78 1839.88 1251.58 1843.75 1224.38L1866.35 1163.29 2074.37 1163.29 2094.68 1244.69C2098.41 1255.89 2108.24 1264 2119.22 1264 2121.59 1264 2123.96 1263.57 2126.33 1262.78 2139.96 1258.26 2149 1244.69 2142.18 1231.12L2094.68 1036.67C2126.33 1032.15 2149 1002.72 2144.48 971.062L2092.46 747.177C2087.94 724.566 2067.56 711 2044.95 711Z" fill="url(#fill4)" fill-rule="evenodd"/></g></svg>