<svg width="501" height="500" xmlns="http://www.w3.org/2000/svg" xmlns:xlink="http://www.w3.org/1999/xlink" xml:space="preserve" overflow="hidden"><defs><clipPath id="clip0"><rect x="336" y="307" width="501" height="500"/></clipPath><linearGradient x1="336.167" y1="807.125" x2="836.416" y2="306.876" gradientUnits="userSpaceOnUse" spreadMethod="reflect" id="fill1"><stop offset="0" stop-color="#C66B6B"/><stop offset="0.17" stop-color="#913985"/><stop offset="1" stop-color="#4361C2"/></linearGradient><linearGradient x1="336.167" y1="807.125" x2="836.416" y2="306.876" gradientUnits="userSpaceOnUse" spreadMethod="reflect" id="fill2"><stop offset="0" stop-color="#C66B6B"/><stop offset="0.17" stop-color="#913985"/><stop offset="1" stop-color="#4361C2"/></linearGradient><linearGradient x1="336.167" y1="807.125" x2="836.416" y2="306.876" gradientUnits="userSpaceOnUse" spreadMethod="reflect" id="fill3"><stop offset="0" stop-color="#C66B6B"/><stop offset="0.17" stop-color="#913985"/><stop offset="1" stop-color="#4361C2"/></linearGradient><linearGradient x1="336.167" y1="807.125" x2="836.416" y2="306.876" gradientUnits="userSpaceOnUse" spreadMethod="reflect" id="fill4"><stop offset="0" stop-color="#C66B6B"/><stop offset="0.17" stop-color="#913985"/><stop offset="1" stop-color="#4361C2"/></linearGradient><linearGradient x1="336.167" y1="807.125" x2="836.416" y2="306.876" gradientUnits="userSpaceOnUse" spreadMethod="reflect" id="fill5"><stop offset="0" stop-color="#C66B6B"/><stop offset="0.17" stop-color="#913985"/><stop offset="1" stop-color="#4361C2"/></linearGradient></defs><g clip-path="url(#clip0)" transform="translate(-336 -307)"><path d="M586.425 425.616C603.901 425.616 606.592 453.933 586.425 453.933L498.919 453.933C480.077 453.933 478.709 425.616 498.919 425.616ZM453.158 307 453.158 409.447C453.158 417.531 446.407 424.247 438.332 424.247L336.043 424.247 336.043 762.514C336.043 786.767 356.21 807 379.112 807L673.931 807C696.79 807 717 788.136 717 762.514L717 638.551 613.343 742.324C613.343 746.345 610.652 747.714 607.96 747.714L520.454 773.293C515.37 774.876 510.328 775.603 505.499 775.603 473.112 775.603 448.159 742.966 459.867 711.312L466.617 691.079 411.414 691.079C392.571 691.079 391.246 660.11 411.414 660.11L476.018 660.11 486.785 631.793 412.781 631.793C393.938 631.793 392.571 600.823 412.781 600.823L508.362 600.823 536.605 572.506 411.414 572.506C392.571 572.506 391.246 542.863 411.414 542.863L566.215 542.863 594.501 513.22 410.089 513.22C391.246 513.22 389.879 483.576 410.089 483.576L622.743 483.576C633.511 472.797 707.557 395.973 717 387.888L717 350.16C717 327.233 699.482 307 673.931 307Z" fill="url(#fill1)" fill-rule="evenodd"/><path d="M509.423 650 487.734 718.912C483.043 732.935 492.553 747 506.668 747 508.82 747 511.144 746.657 513.511 745.928L584 722.943 509.423 650Z" fill="url(#fill2)" fill-rule="evenodd"/><path d="M774.981 398.043C762.078 398.043 748.962 402.882 737.508 414.403L712.042 438.686 795.208 521 819.353 496.717C860.958 455.903 819.481 398.043 774.981 398.043Z" fill="url(#fill3)" fill-rule="evenodd"/><path d="M689.892 462.043 527.043 624.892 609.108 706.957 718.13 597.978 771.957 544.108 689.892 462.043Z" fill="url(#fill4)" fill-rule="evenodd"/><path d="M426 316 345 396 426 396 426 316Z" fill="url(#fill5)" fill-rule="evenodd"/></g></svg>